Simulation
nRows=46
nColumns=15
endheader
time  TH_x TH_y TH_z SC_y  SC_z  SC_x  AC_y  AC_z  AC_x  GH_y  GH_z  GH_yy  EL_x  PS_y
0.0  0.000000  0.000000  0.000000  -21.4161076948402  6.654708998048325  -9.29394487402909  55.71905773029892  8.234864024378684  10.330949199357123  -161.33684121053204  2.589199119335849  -161.31313577163473  21.12400045406357  120.000000
0.04016479400749064  0.000000  0.000000  0.000000  -21.415470943024886  6.663589535724206  -9.30626736239559  55.67350772880622  8.275960476768  10.31322701404129  -159.9041378093028  2.4468619760251675  -162.85363542400327  20.46728568002384  120.000000
0.08032958801498127  0.000000  0.000000  0.000000  -21.409376410893536  6.688083793100285  -9.336300002111239  55.53034721329441  8.398297238796431  10.258836072517749  -154.19818858559188  2.0258859707073587  -168.89161715867783  19.87205166784276  120.000000
0.12049438202247191  0.000000  0.000000  0.000000  -21.401788718030495  6.7320341902568845  -9.381176384363183  55.28612559591202  8.590097127790644  10.167787688388703  -137.27743168279733  1.4008482699917228  173.61485441901377  19.308943415989372  120.000000
0.16065917602996255  0.000000  0.000000  0.000000  -21.40374271980966  6.796169707636617  -9.448173299029833  54.942508317263304  8.830612852840753  10.04249626559108  -86.27181364035671  1.0520353371258249  121.79036935254875  18.754801110148204  120.000000
0.20082397003745317  0.000000  0.000000  0.000000  -21.431772651506087  6.876321270973835  -9.544450377395764  54.5024297365944  9.101673197726933  9.88569421327423  -39.50086317254772  1.8694499403582512  73.95916873383274  18.189925501844343  120.000000
0.24098876404494382  0.000000  0.000000  0.000000  -21.51259568913652  6.970750272746529  -9.673414441550909  53.9763229963107  9.388479341483134  9.702880474119652  -24.096525016903392  3.3583938856356874  57.26731025758833  17.60502233545822  120.000000
0.28115355805243447  0.000000  0.000000  0.000000  -21.669427981829365  7.075201673156167  -9.830045359892129  53.377770574921165  9.681117728590374  9.502967500410925  -18.007965568395488  5.162911036421624  49.68893246387919  16.99904675330607  120.000000
0.3213183520599251  0.000000  0.000000  0.000000  -21.92436885310936  7.188688501820889  -10.002706383552779  52.727616884154735  9.976933177643845  9.292937486132042  -14.963545975044912  7.193751285866634  44.9824993706757  16.377773985652155  120.000000
0.3614831460674157  0.000000  0.000000  0.000000  -22.29063051838504  7.312864425257704  -10.17320141482022  52.04888822873838  10.278720217858714  9.076031361848695  -13.224844636585571  9.410912241002281  41.44273473684951  15.751015555090166  120.000000
0.40164794007490634  0.000000  0.000000  0.000000  -22.770271585000362  7.449877216545036  -10.31985251013059  51.36287062839584  10.59077714331387  8.853849289792864  -12.17708166171584  11.785321899100508  38.48920232209555  15.128007886319077  120.000000
0.441812734082397  0.000000  0.000000  0.000000  -23.360252655127972  7.601069786398736  -10.420131357483323  50.6888923295181  10.917377441760735  8.628504219370441  -11.55253539437024  14.29125958654783  35.888856079063345  14.518883750709755  120.000000
0.48197752808988764  0.000000  0.000000  0.000000  -24.050933913381026  7.7668282119615775  -10.450764912958167  50.04407699401658  11.259586527503881  8.400500295911826  -11.216661740055889  16.90344315220689  33.540483388897016  13.931832809404604  120.000000
0.5221423220973783  0.000000  0.000000  0.000000  -24.830559494953537  7.947550651558416  -10.390025541373195  49.44479748603971  11.613577230378878  8.167615671894266  -11.088707673179078  19.597005692865924  31.395290966150394  13.373335979822375  120.000000
0.5623071161048689  0.000000  0.000000  0.000000  -25.68593925643946  8.142562885401365  -10.219211252460047  48.904578300300564  11.970964703340712  7.926711296564533  -11.11297295169692  22.346134423457027  29.42658397302417  12.84737827449348  120.000000
0.6024719101123596  0.000000  0.000000  0.000000  -26.603245972659927  8.34918518107164  -9.9215240712277  48.435577431524486  12.319344267380146  7.673541831587827  -11.241874125514501  25.124691909792777  27.612844909808704  12.35528036699832  120.000000
0.6426367041198502  0.000000  0.000000  0.000000  -27.568412801752572  8.564056165098489  -9.48627661259182  48.048208375106725  12.64687252802869  7.406074732565631  -11.431680170821014  27.90665542067548  25.932085378627686  11.89652516688265  120.000000
0.6828014981273408  0.000000  0.000000  0.000000  -28.56794706841679  8.78413010377043  -8.912265261312442  47.75046526236582  12.945927862065174  7.126519568056233  -11.641764361635268  30.668214164380593  24.36072533853185  11.468050301709216  120.000000
0.7229662921348314  0.000000  0.000000  0.000000  -29.589971811930635  9.007348100907581  -8.203331726285255  47.54767847877452  13.210754893395407  6.83835750719274  -11.835992772457589  33.3890255385583  22.873811447642023  11.064707727288095  120.000000
0.7631310861423221  0.000000  0.000000  0.000000  -30.624433124077264  9.232200982351092  -7.365659633701283  47.44153697598827  13.436083660413143  6.544849111965244  -11.984837372581874  36.05235997588513  21.447359988803633  10.679261627147731  120.000000
0.8032958801498127  0.000000  0.000000  0.000000  -31.662973220008706  9.45761273420999  -6.408884653231845  47.4293127208991  13.618483287010127  6.249668535728685  -12.0667309045276  38.64449952861063  20.059861682652777  10.303427312193158  120.000000
0.8434606741573034  0.000000  0.000000  0.000000  -32.69804874322602  9.682921150830696  -5.347493963715689  47.50338043011403  13.757629965949288  5.9578266090160605  -12.068701789540686  41.154454468354494  18.694359441336395  9.929303144257938  120.000000
0.883625468164794  0.000000  0.000000  0.000000  -33.72176946130049  9.907872905557419  -4.199584482936787  47.65204266225507  13.85521620111562  5.6746397327985925  -11.985879740514925  43.57352878813473  17.339258239700293  9.550971821791137  120.000000
0.9237902621722847  0.000000  0.000000  0.000000  -34.724735552160915  10.132341641924578  -2.984766188005087  47.86046323773801  13.913440605643993  5.404655123513261  -11.820166547245032  45.89494831612849  15.98910270488023  9.166496349094418  120.000000
0.9639550561797753  0.000000  0.000000  0.000000  -35.696041445789014  10.356335549706046  -1.724198850648672  48.11139987216035  13.934863880987484  5.1516949710758055  -11.580208644976066  48.1133447577259  14.645834228357067  8.778809569963224  120.000000
1.004119850187266  0.000000  0.000000  0.000000  -36.6243502110273  10.580285422926035  -0.4408883968347199  48.38573581452351  13.922098645824859  4.918301372204501  -11.281077483126099  50.223716077964056  13.319245833828704  8.395002160179832  120.000000
1.0442846441947566  0.000000  0.000000  0.000000  -37.49865581753877  10.804399599893388  0.8406616924648332  48.663531580869915  13.877471560763064  4.7051305422836425  -10.94290836242934  52.22020632058662  12.02586127700384  8.025354141312546  120.000000
1.0844494382022472  0.000000  0.000000  0.000000  -38.30843394661805  11.028181776186852  2.095325056168018  48.926367469655716  13.80241261032522  4.510887592980596  -10.587873283727077  54.094962674553514  10.786324796030534  7.68175948286268  120.000000
1.1246142322097379  0.000000  0.000000  0.000000  -39.044305631274746  11.250191010149292  3.2989026723776975  49.15935015994379  13.697709542319743  4.332766399708403  -10.237562559773892  55.83855115775316  9.62283941353117  7.376338576707459  120.000000
1.1647790262172284  0.000000  0.000000  0.000000  -39.69953811639245  11.468674747086414  4.429978357759755  49.35236387459304  13.56385934648813  4.166863267619384  -9.910399474429124  57.44205831280914  8.556375261287997  7.119936094518027  120.000000
1.2049438202247191  0.000000  0.000000  0.000000  -40.271474882665686  11.68188589952438  5.47157783034246  49.500789575943166  13.40123348413507  4.008696670544334  -9.620386094671053  58.898771642432244  7.604911772630252  6.920897037777261  120.000000
1.2451086142322096  0.000000  0.000000  0.000000  -40.76167785453396  11.887512448578374  6.411347353064673  49.60533887857642  13.210219605265051  3.853470168490397  -9.376905290738023  60.2046555222583  6.782145470555111  6.784202615996969  120.000000
1.2852734082397004  0.000000  0.000000  0.000000  -41.17529959776526  12.082192646461277  7.24192468350427  49.67108199849782  12.991650715042285  3.696496863537144  -9.185265186460876  61.357897186241814  6.096976817738048  6.710794928675909  120.000000
1.325438202247191  0.000000  0.000000  0.000000  -41.519446462718435  12.261886770200979  7.9610348150446395  49.70588168976827  12.747662584515405  3.533629718517796  -9.047140566951608  62.35904256108984  5.552668559372772  6.696984770189037  120.000000
1.3656029962546816  0.000000  0.000000  0.000000  -41.80164019989874  12.422447059255004  8.571857282956472  49.71846399387456  12.482824902728256  3.3623960238788433  -8.960979333264415  63.211295067507464  5.146596142543574  6.734155501999063  120.000000
1.4057677902621724  0.000000  0.000000  0.000000  -42.02871678077705  12.560286430339731  9.082539981041826  49.7168082664158  12.204618870623328  3.182542913569167  -8.922637543746395  63.92070931985243  4.870080902919955  6.8089477131834615  120.000000
1.4459325842696629  0.000000  0.000000  0.000000  -42.206532402541505  12.672893035864451  9.505025908810987  49.707003024331726  11.923148156683384  2.9959858981779846  -8.92622206915147  64.49563310211761  4.709363115166814  6.9042280399569025  120.000000
1.4860973782771536  0.000000  0.000000  0.000000  -42.34004401958765  12.758930825616773  9.853367235277728  49.69303849061038  11.650171047372934  2.8060397969918482  -8.964874398758969  64.94548584118665  4.646734299767517  7.0010692682351765  120.000000
1.5262621722846441  0.000000  0.000000  0.000000  -42.433262138691006  12.818161844523022  10.141647566925398  49.67696626043393  11.39749484120937  2.6166172513239374  -9.031135663264417  65.27916163623196  4.6623197045145455  7.081398574730374  120.000000
1.5664269662921348  0.000000  0.000000  0.000000  -42.489033188344244  12.851130359075697  10.382063057579465  49.65949670001508  11.175415493968746  2.4314622604178173  -9.117157106968474  65.50307782859439  4.735570128048347  7.130925820814756  120.000000
1.6065917602996254  0.000000  0.000000  0.000000  -42.508589112363126  12.858862548796997  10.583280341947752  49.64062725899924  10.991263864623665  2.25356497176305  -9.214811170123658  65.61949239403793  4.846883929076911  7.141674459387474  120.000000
1.646756554307116  0.000000  0.000000  0.000000  -42.49089861698586  12.84246530562186  10.74943171519784  49.62024046325999  10.848442158136681  2.0848403879018633  -9.315836235303541  65.62480909050966  4.9785208401518215  7.113521525932934  120.000000
1.6869213483146068  0.000000  0.000000  0.000000  -42.431920415516146  12.802622814825654  10.879701131995063  49.59853376565718  10.746106373521346  1.9262325301282976  -9.412162829722533  65.50846184249986  5.115275210678104  7.054350860706956  120.000000
1.7270861423220973  0.000000  0.000000  0.000000  -42.32413120779022  12.739515377567983  10.968351945066438  49.57647867164834  10.679529605771922  1.7778491784279746  -9.49632497460322  65.25227790624531  5.244473436398036  6.978829664968446  120.000000
1.767250936329588  0.000000  0.000000  0.000000  -42.15664303557594  12.65257784677171  11.005201243000377  49.556013311544646  10.640589332368647  1.6393552179216129  -9.561938949235993  64.83075806873609  5.356113061813418  6.906607634608684  120.000000
1.8074157303370786  0.000000  0.000000  0.000000  -41.916129651389184  12.540479209355404  10.976220480912554  49.540154773635706  10.618207210507117  1.5101893633400614  -9.604123194100863  64.21204544036031  5.442980750369234  6.8600600750508525  120.000000
